<?xml version="1.0" encoding="utf-8"?><svg xmlns="http://www.w3.org/2000/svg" xmlns:xlink="http://www.w3.org/1999/xlink"><symbol viewBox="0 0 37.5 37.5" id="facebook__icon"><path d="M9.701 34.922C4.424 32.136 0 24.761 0 18.75 0 9.238 9.238 0 18.75 0S37.5 9.238 37.5 18.75c0 6.203-4.422 13.404-9.967 16.233-6.16 3.143-11.8 3.123-17.832-.061zM20 23.75c0-3.611.52-5 1.875-5 2.55 0 2.368-2.1-.312-3.604-2.084-1.17-2.084-1.268 0-2.07 2.364-.912 3.04-4.326.855-4.326-2.542 0-6.168 2.598-6.168 4.419C16.25 14.176 15.688 15 15 15s-1.25.844-1.25 1.875.563 1.875 1.25 1.875 1.25 2.25 1.25 5c0 3.611.52 5 1.875 5S20 27.361 20 23.75z"/></symbol><symbol viewBox="0 0 37.5 37.5" id="github__icon"><path d="M9.86 34.922C4.583 32.136.16 24.761.16 18.75.159 9.238 9.397 0 18.909 0s18.75 9.238 18.75 18.75c0 6.203-4.422 13.404-9.967 16.233-6.16 3.143-11.8 3.123-17.832-.061zm14.608-7.397c4.594-1.747 6.206-5.97 4.582-12.002l-1.32-4.898H10.073l-1.406 4.691c-2.948 9.84 5.29 16.206 15.802 12.21zm-12.582-3.084c-1.645-4.287.444-5.84 7.321-5.444 6.081.35 6.577.614 6.577 3.503s-.496 3.154-6.577 3.503c-5.036.29-6.75-.076-7.32-1.562zM16.41 22.5c0-1.375-.563-2.5-1.25-2.5s-1.25 1.125-1.25 2.5.562 2.5 1.25 2.5 1.25-1.125 1.25-2.5zm7.5 0c0-1.375-.563-2.5-1.25-2.5s-1.25 1.125-1.25 2.5.562 2.5 1.25 2.5 1.25-1.125 1.25-2.5z"/></symbol></svg>