<svg id="svg3362" xmlns:rdf="http://www.w3.org/1999/02/22-rdf-syntax-ns#" xmlns="http://www.w3.org/2000/svg" height="37.5" viewBox="0 0 37.5 37.5" width="37.5" version="1.1" xmlns:cc="http://creativecommons.org/ns#" xmlns:dc="http://purl.org/dc/elements/1.1/">
 <path id="path3372" style="fill:#959595" d="m10.429183 34.855864c-4.0878552-1.855347-5.9297009-3.697193-7.7850468-7.785048-3.131273-6.899085-3.093564-10.18377 0.194897-16.976823 1.9937763-4.1185928 3.9944853-6.1333107 7.8124988-7.8672024 6.510742-2.956752 10.049555-2.9357038 16.737081 0.099549 4.087855 1.8553462 5.929701 3.6971919 7.785048 7.7850474 1.336682 2.945094 2.430332 6.760965 2.430332 8.479715s-1.09365 5.534621-2.430332 8.479715c-1.855347 4.087855-3.697193 5.929701-7.785048 7.785047-6.736141 3.057318-10.223289 3.057318-16.95943 0zm15.250549-10.075951c3.209316-3.080841 3.088829-9.384704-0.243057-12.71659-5.642658-5.6426587-15.694443-1.548964-15.694443 6.391728 0 8.80101 9.4510113 12.551682 15.9375 6.324862zm-10.520834-0.519832c0-2.840186 4.56754-4.848933 5.500049-2.418854 1.306236 3.403999 0.833517 4.249874-2.375049 4.249874-1.911085 0-3.125-0.711265-3.125-1.83102zm7.5-1.765924c0-1.524938 0.797276-2.653056 1.875-2.653056 1.03125 0 1.875 0.493625 1.875 1.096944 0 0.60332-0.84375 1.797195-1.875 2.653056-1.566503 1.300082-1.875 1.1196-1.875-1.096944zm-10.745026-0.640095c-0.982991-2.561632-0.864772-2.677729 3.870026-3.800569 3.178559-0.753783 3.464279-0.637719 1.875 0.761654-1.03125 0.908025-2.562646 2.440421-3.403102 3.405325-1.298727 1.49103-1.650263 1.436029-2.341924-0.36641zm10.90447-6.622c1.494661-1.837478 1.445661-2.007995-0.380553-1.324301-1.168345 0.437404-2.757569-0.01225-3.590556-1.015961-2.334371-2.812747 2.929085-2.34779 5.49293 0.485227 2.745627 3.033883 2.608514 3.964074-0.584321 3.964074-2.333645 0-2.446514-0.253915-0.9375-2.109039zm-9.922253-1.163866c1.112598-1.112599 2.639384-1.641901 3.392858-1.176229 2.482102 1.534024 1.429205 3.199134-2.022906 3.199134-3.126126 0-3.233826-0.159031-1.369952-2.022905z"/>
</svg>
