<svg id="svg3336" xmlns:rdf="http://www.w3.org/1999/02/22-rdf-syntax-ns#" xmlns="http://www.w3.org/2000/svg" height="37.5" viewBox="0 0 37.5 37.5" width="37.5" version="1.1" xmlns:cc="http://creativecommons.org/ns#" xmlns:dc="http://purl.org/dc/elements/1.1/">
 <path id="path3346" style="fill:#636363" d="m9.7012762 34.92196c-5.277082-2.786099-9.7012762-10.161201-9.7012762-16.17196 4.5508981e-8 -9.5118023 9.2381972-18.75 18.75-18.75 9.511803 0 18.75 9.2381977 18.75 18.75 0 6.202651-4.421648 13.404136-9.967025 16.233177-6.159649 3.142418-11.800453 3.123053-17.831699-0.06121zm10.298724-11.17196c0-3.611111 0.520834-5 1.875-5 2.549691 0 2.367663-2.099196-0.3125-3.603825-2.083334-1.169573-2.083334-1.268184 0-2.070849 2.36439-0.91095 3.039575-4.325326 0.855324-4.325326-2.542179 0-6.167824 2.597619-6.167824 4.41898 0 1.007061-0.5625 1.83102-1.25 1.83102s-1.25 0.84375-1.25 1.875 0.5625 1.875 1.25 1.875 1.25 2.25 1.25 5c0 3.611111 0.520834 5 1.875 5s1.875-1.388889 1.875-5z"/>
</svg>
