<svg id="svg3374" xmlns:rdf="http://www.w3.org/1999/02/22-rdf-syntax-ns#" xmlns="http://www.w3.org/2000/svg" height="37.5" viewBox="0 0 37.5 37.5" width="37.5" version="1.1" xmlns:cc="http://creativecommons.org/ns#" xmlns:dc="http://purl.org/dc/elements/1.1/">
 <path id="path3386" style="fill:#363636" d="m9.860174 34.92196c-5.277081-2.786099-9.701276-10.161201-9.701276-16.17196-2e-8 -9.5118029 9.238198-18.75 18.75-18.75 9.511803 1.8644073e-8 18.75 9.2381971 18.75 18.75 0 6.202651-4.421648 13.404136-9.967025 16.233177-6.159649 3.142418-11.800453 3.123053-17.831699-0.06121zm14.607713-7.396863c4.594488-1.746821 6.206341-5.969162 4.581792-12.002275l-1.318846-4.897822h-8.829418-8.829417l-1.405514 4.691186c-2.948201 9.84022 5.28991 16.205374 15.801403 12.208911zm-12.581703-3.084288c-1.644947-4.286663 0.443639-5.839749 7.321236-5.444118 6.080694 0.349789 6.576478 0.613895 6.576478 3.503309s-0.495784 3.15352-6.576478 3.503309c-5.036572 0.289727-6.750865-0.07614-7.321236-1.5625zm4.522714-1.940809c0-1.375-0.5625-2.5-1.25-2.5s-1.25 1.125-1.25 2.5 0.5625 2.5 1.25 2.5 1.25-1.125 1.25-2.5zm7.5 0c0-1.375-0.5625-2.5-1.25-2.5s-1.25 1.125-1.25 2.5 0.5625 2.5 1.25 2.5 1.25-1.125 1.25-2.5z"/>
</svg>
