<svg id="svg3348" xmlns:rdf="http://www.w3.org/1999/02/22-rdf-syntax-ns#" xmlns="http://www.w3.org/2000/svg" height="37.5" viewBox="0 0 37.5 37.5" width="37.5" version="1.1" xmlns:cc="http://creativecommons.org/ns#" xmlns:dc="http://purl.org/dc/elements/1.1/">
 <path id="path3360" style="fill:#6e6e6e" d="m9.7012758 35.398655c-5.277081-2.786099-9.701276-10.161201-9.701276-16.17196 3.050848e-8 -9.5118029 9.238197-18.75 18.75-18.75s18.75 9.2381972 18.75 18.75c0 6.202651-4.421648 13.404136-9.967025 16.233177-6.159649 3.142418-11.800453 3.123053-17.831699-0.06121zm17.548724-7.67196c0.825-0.825 1.5-3.075 1.5-5 0-4.230699-3.56839-4.829431-5.959909-1-0.858701 1.375-2.676742 2.5-4.040091 2.5s-3.18139-1.125-4.040091-2.5c-2.391519-3.829431-5.9599092-3.230699-5.9599092 1 0 1.925 0.675 4.175 1.5000002 5 1.94755 1.94755 15.05245 1.94755 17 0zm-5.375-8.5c0-2.29091-0.752173-3.231809-2.818089-3.525171-1.690349-0.240031-3.119482 0.385249-3.571236 1.5625-1.244585 3.243339 0.499854 5.923981 3.571236 5.487842 2.065916-0.293362 2.818089-1.234261 2.818089-3.525171zm-6.875-3.125c0.855861-1.03125 2.543361-1.875 3.75-1.875s2.894139 0.84375 3.75 1.875c2.503904 3.017019 6.25 2.359537 6.25-1.096944 0-4.540408-2.730954-5.9517541-10.702646-5.5310827-7.537481 0.3977576-10.431271 2.4951057-8.9105192 6.4581227 0.9808622 2.556085 3.8146592 2.638203 5.8631652 0.169904zm8.75-3.125c0-0.6875 0.5625-1.25 1.25-1.25s1.25 0.5625 1.25 1.25-0.5625 1.25-1.25 1.25-1.25-0.5625-1.25-1.25z"/>
</svg>
