<svg id="svg3348" xmlns:rdf="http://www.w3.org/1999/02/22-rdf-syntax-ns#" xmlns="http://www.w3.org/2000/svg" height="15" viewBox="0 0 22.5 15" width="22.5" version="1.1" xmlns:cc="http://creativecommons.org/ns#" xmlns:dc="http://purl.org/dc/elements/1.1/">
 <path id="path3372" style="fill:#777" d="m1.0593218 7.7182976c0-5.7290574 0.02357-5.7613198 2.8125-3.8505238 1.546875 1.0598176 2.715144 2.4048693 2.596154 2.9890035-0.11899 0.5841343 1.947116 1.0620623 4.5913462 1.0620623 2.644231 0 4.710336-0.477928 4.591346-1.0620623-0.11899-0.5841342 1.049279-1.9291859 2.596154-2.9890035 2.788935-1.910796 2.8125-1.8785336 2.8125 3.8505238v5.7774654h-10-10v-5.7774654zm5.625-3.5587902-3.75-3.0738374h8.1250002 8.125l-3.75 3.0738374c-2.0625 1.6906105-4.03125 3.0738374-4.375 3.0738374s-2.3125002-1.3832269-4.3750002-3.0738374z"/>
</svg>
