<svg
   class="cloud"
   xmlns:dc="http://purl.org/dc/elements/1.1/"
   xmlns:cc="http://creativecommons.org/ns#"
   xmlns:rdf="http://www.w3.org/1999/02/22-rdf-syntax-ns#"
   xmlns:svg="http://www.w3.org/2000/svg"
   xmlns="http://www.w3.org/2000/svg"
   viewBox="0 0 47.5 45"
   height="45"
   width="47.5"
   version="1.1"
   id="svg3336">
  <path
     class="cloud__path"
     id="path3346"
     d="m 19.172904,39.932635 c -3.765874,-3.930725 -3.106486,-5.251949 0.839074,-1.681265 2.199571,1.990584 2.285926,1.612816 2.285926,-10 0,-7.21249 0.502977,-12.068735 1.250001,-12.068735 0.747022,0 1.25,4.856245 1.25,12.068735 0,11.612816 0.08635,11.990584 2.285926,10 3.94556,-3.570684 4.604948,-2.24946 0.839074,1.681265 -1.976,2.0625 -3.94475,3.75 -4.375,3.75 -0.43025,0 -2.399001,-1.6875 -4.375001,-3.75 z M 4.3414776,27.34191 C -0.69704551,23.378607 -0.14973854,17.971586 5.8822491,12.120135 8.5399178,9.5420102 11.886467,7.4326352 13.319027,7.4326352 c 1.432558,0 3.054477,-0.7616343 3.604264,-1.6925199 1.52165,-2.5764202 6.020299,-4.5574806 10.349255,-4.5574806 4.485626,0 9.494308,4.3238976 10.735035,9.2673483 0.446239,1.777959 1.506934,3.232652 2.357099,3.232652 2.557354,0 5.683225,4.351145 5.683225,7.910926 0,5.712934 -3.950702,8.363002 -12.1875,8.175178 l -7.1875,-0.163898 7.4134,-0.944736 c 7.471261,-0.95211 10.733645,-3.211113 10.692459,-7.403883 -0.02931,-2.98453 -1.575714,-4.791328 -5.318799,-6.214447 -2.435766,-0.926076 -3.41206,-2.174314 -3.41206,-4.362476 0,-3.4585382 -5.225959,-8.2466643 -9.00075,-8.2466643 -3.023885,0 -7.557287,2.3282854 -8.873864,4.5574806 -0.549787,0.9308859 -2.171706,1.6925199 -3.604264,1.6925199 -3.423134,0 -12.2685945,8.6463138 -12.2700125,11.9937648 -0.0017,3.919211 4.4345084,7.18295 11.0135995,8.102828 l 5.86029,0.819374 -5.768926,0.167017 C 9.275577,29.88514 6.6984481,29.195904 4.3414776,27.34191 Z"
     style="fill:#7b7b7b" />
</svg>
