<svg id="svg3348" xmlns:rdf="http://www.w3.org/1999/02/22-rdf-syntax-ns#" xmlns="http://www.w3.org/2000/svg" height="70" viewBox="0 0 60 70" width="60" version="1.1" xmlns:cc="http://creativecommons.org/ns#" xmlns:dc="http://purl.org/dc/elements/1.1/">
 <path id="path3358" style="fill:#777" d="m2.9163404 67.076588c-4.830836-4.830836-3.512793-9.794776 7.5592266-28.469142l9.524433-16.064165v-9.873335c0-5.7488909-0.52217-9.8733359-1.25-9.8733359-0.6875 0-1.25-0.5625-1.25-1.25 0-0.68749996 1.125-1.25 2.5-1.25 1.666666 0 2.5 0.83333336 2.5 2.5 0 1.9444445 0.833334 2.5 3.75 2.5 2.0625 0 3.75 0.5625 3.75 1.25s-1.6875 1.2500005-3.75 1.2500005c-2.916666 0-3.75 0.555555-3.75 2.5000004 0 1.666667 0.833334 2.5 2.5 2.5 1.375 0 2.5 0.5625 2.5 1.25s-1.125 1.25-2.5 1.25c-1.666666 0-2.5 0.833334-2.5 2.5 0 1.944445 0.833334 2.5 3.75 2.5 2.0625 0 3.75 0.5625 3.75 1.25s-1.667709 1.25-3.70602 1.25c-2.426701 0-4.167885 0.863001-5.04398 2.5-1.20136 2.244762-0.950613 2.5 2.45602 2.5 2.086689 0 3.79398 0.5625 3.79398 1.25s-2.109375 1.270921-4.6875 1.296492c-4.634168 0.04596-4.776388 0.200335-12.5 13.56806-4.2968746 7.436863-7.8124996 14.728442-7.8124996 16.203508 0 1.475068 1.125 3.80694 2.5 5.18194 2.314814 2.314815 4.166666 2.5 25 2.5s22.685185-0.185185 25-2.5c1.375-1.375 2.5-3.801466 2.5-5.392148 0-1.59068-4.491313-10.450055-9.980695-19.6875l-9.980695-16.795352-0.0193-11.5625c-0.01793-10.735603 0.159479-11.562501 2.48069-11.562501 1.375 0 2.5 0.5625 2.5 1.25s-0.5625 1.25-1.25 1.25c-0.728261 0-1.25 4.137934-1.25 9.9138029v9.913802l9.998435 16.648698c11.144467 18.556992 12.175354 22.713545 6.933384 27.955517-3.04329 3.04329-3.261785 3.068181-26.931819 3.068181h-23.863637l-3.220023-3.220023zm4.047945-3.744263c-3.035593-3.035593-2.449005-5.32262 4.3854316-17.098214l6.348015-10.9375h12.302268 12.302267l6.348016 10.9375c6.981508 12.028994 7.438436 13.939754 4.063791 16.993765-3.3173 3.002116-42.762067 3.09217-45.749789 0.10445zm44.647845-3.155094c0.96133-1.525932-0.17834-4.388575-4.852063-12.1875l-6.10851-10.19312-10.638278 0.01533-10.638279 0.01533-5.625 9.609625c-6.8241836 11.658283-6.6530816 11.256322-5.7704976 13.556299 1.093835 2.850486 41.802388 2.089204 43.632628-0.815965z"/>
</svg>
