<svg id="svg3348" xmlns:rdf="http://www.w3.org/1999/02/22-rdf-syntax-ns#" xmlns="http://www.w3.org/2000/svg" height="37.5" viewBox="0 0 37.5 37.5" width="37.5" version="1.1" xmlns:cc="http://creativecommons.org/ns#" xmlns:dc="http://purl.org/dc/elements/1.1/">
 <path id="path3360" style="fill:#a5a5a5" d="m10.019072 35.398654c-5.2770808-2.786099-9.7012758-10.161201-9.7012758-16.17196 0-9.5118015 9.238198-18.749999 18.75-18.749999 9.511803 0 18.75 9.2381976 18.75 18.749999 0 6.202651-4.421648 13.404136-9.967025 16.233177-6.159649 3.142418-11.800453 3.123053-17.831699-0.06121zm12.798724-9.793555c2.761465-1.99601 3.738667-3.888198 5.876273-11.378405 0.826096-2.894656 0.715746-3.075055-2.365002-3.866251-3.513416-0.9023145-7.261271 0.793335-7.261271 3.285231 0 2.357654-1.691342 2.313394-6.493554-0.169926l-3.8694038-2.000948 0.723566 5.394589c0.397961 2.967024 1.6434478 6.067224 2.7677478 6.889331 1.829303 1.337619 1.73947 1.591616-0.854587 2.416314-2.7881758 0.886411-2.8033888 0.959862-0.398769 1.925239 3.266354 1.311333 7.97856 0.321205 11.875-2.495174z"/>
</svg>
